<?xml version="1.0" encoding="UTF-8" standalone="no"?>
<svg
   height="48px"
   viewBox="0 -960 960 960"
   width="48px"
   fill="#000000"
   version="1.1"
   id="svg4"
   sodipodi:docname="logo.svg"
   xml:space="preserve"
   inkscape:version="1.2.2 (b0a8486541, 2022-12-01)"
   xmlns:inkscape="http://www.inkscape.org/namespaces/inkscape"
   xmlns:sodipodi="http://sodipodi.sourceforge.net/DTD/sodipodi-0.dtd"
   xmlns="http://www.w3.org/2000/svg"
   xmlns:svg="http://www.w3.org/2000/svg"><defs
     id="defs8" /><sodipodi:namedview
     id="namedview6"
     pagecolor="#ffffff"
     bordercolor="#000000"
     borderopacity="0.25"
     inkscape:showpageshadow="2"
     inkscape:pageopacity="0.0"
     inkscape:pagecheckerboard="0"
     inkscape:deskcolor="#d1d1d1"
     showgrid="false"
     inkscape:zoom="17"
     inkscape:cx="24.029412"
     inkscape:cy="24.029412"
     inkscape:window-width="1920"
     inkscape:window-height="993"
     inkscape:window-x="0"
     inkscape:window-y="0"
     inkscape:window-maximized="1"
     inkscape:current-layer="svg4" /><path
     d="m 220,-80 c -16,0 -30,-6 -42,-18 -12,-12 -18,-26 -18,-42 v -680 c 0,-16 6,-30 18,-42 12,-12 26,-18 42,-18 h 361 l 219,219 v 521 c 0,16 -6,30 -18,42 -12,12 -26,18 -42,18 z M 551,-634 V -820 H 220 v 680 H 740 V -634 Z M 220,-820 v 186 -186 680 z"
     id="path2"
     style="fill:#ffffff"
     inkscape:label="path2"
     sodipodi:nodetypes="ssssssccsssscccccccccccc" /><g
     style="fill:#ffffff"
     id="g950"
     transform="matrix(0.60818814,0,0,0.60189564,186.92414,-97.490152)"><path
       d="M 454,-602 H 799 Q 771,-676 710,-732.5 649,-789 571,-810 Z m -93,83 174,-299 q -12,-1 -27,-1.5 -15,-0.5 -28,-0.5 -72,0 -132,26 -60,26 -108,72 z M 150,-393 H 387 L 217,-696 q -38,45 -57.5,100.5 Q 140,-540 140,-480 q 0,21 2,44 2,23 8,43 z m 240,242 120,-207 H 162 q 28,74 88.5,130.5 Q 311,-171 390,-151 Z m 90,11 q 72,0 132.5,-26 60.5,-26 107.5,-72 L 600,-441 425,-142 q 13,1 27.5,1.5 14.5,0.5 27.5,0.5 z m 264,-124 q 34,-42 55,-99 21,-57 21,-117 0,-22 -2,-44.5 -2,-22.5 -7,-43.5 H 574 Z M 480,-480 Z m 0,400 q -82,0 -155,-31.5 -73,-31.5 -127.5,-86 Q 143,-252 111.5,-325 80,-398 80,-480 q 0,-83 31.5,-155.5 31.5,-72.5 86,-127 54.5,-54.5 127.5,-86 73,-31.5 155,-31.5 83,0 155.5,31.5 72.5,31.5 127,86 54.5,54.5 86,127 31.5,72.5 31.5,155.5 0,82 -31.5,155 -31.5,73 -86,127.5 -54.5,54.5 -127,86 Q 563,-80 480,-80 Z"
       id="path941"
       style="fill:#ffffff" /></g></svg>
